<mxfile host="app.diagrams.net" modified="2020-08-14T12:08:12.967Z" agent="5.0 (Macintosh; Intel Mac OS X 10_15_6) AppleWebKit/537.36 (KHTML, like Gecko) Chrome/84.0.4147.125 Safari/537.36" etag="Pzm8-pO0Q-UZ5_qtxd6i" version="13.6.2" type="github">
  <diagram id="cdNBXpLfacESOT-dGQyu" name="Page-1">
    <mxGraphModel dx="1186" dy="715" grid="1" gridSize="10" guides="1" tooltips="1" connect="1" arrows="1" fold="1" page="1" pageScale="1" pageWidth="827" pageHeight="1169" math="0" shadow="0">
      <root>
        <mxCell id="0" />
        <mxCell id="1" parent="0" />
        <mxCell id="01gwcUR04YjT3qTSlaYS-7" style="rounded=0;orthogonalLoop=1;jettySize=auto;html=1;exitX=1;exitY=0.334;exitDx=0;exitDy=0;exitPerimeter=0;entryX=0;entryY=0.5;entryDx=0;entryDy=0;" edge="1" parent="1" source="01gwcUR04YjT3qTSlaYS-1" target="01gwcUR04YjT3qTSlaYS-2">
          <mxGeometry relative="1" as="geometry" />
        </mxCell>
        <mxCell id="01gwcUR04YjT3qTSlaYS-8" style="rounded=0;orthogonalLoop=1;jettySize=auto;html=1;exitX=1;exitY=0.3333333333333333;exitDx=0;exitDy=0;exitPerimeter=0;entryX=0;entryY=0.5;entryDx=0;entryDy=0;" edge="1" parent="1" source="01gwcUR04YjT3qTSlaYS-1" target="01gwcUR04YjT3qTSlaYS-4">
          <mxGeometry relative="1" as="geometry" />
        </mxCell>
        <mxCell id="01gwcUR04YjT3qTSlaYS-9" style="rounded=0;orthogonalLoop=1;jettySize=auto;html=1;exitX=1;exitY=0.3333333333333333;exitDx=0;exitDy=0;exitPerimeter=0;entryX=0;entryY=0.5;entryDx=0;entryDy=0;" edge="1" parent="1" source="01gwcUR04YjT3qTSlaYS-1" target="01gwcUR04YjT3qTSlaYS-5">
          <mxGeometry relative="1" as="geometry" />
        </mxCell>
        <mxCell id="01gwcUR04YjT3qTSlaYS-10" style="rounded=0;orthogonalLoop=1;jettySize=auto;html=1;exitX=1;exitY=0.3333333333333333;exitDx=0;exitDy=0;exitPerimeter=0;entryX=0;entryY=0.5;entryDx=0;entryDy=0;" edge="1" parent="1" source="01gwcUR04YjT3qTSlaYS-1" target="01gwcUR04YjT3qTSlaYS-6">
          <mxGeometry relative="1" as="geometry" />
        </mxCell>
        <mxCell id="01gwcUR04YjT3qTSlaYS-13" style="edgeStyle=none;rounded=0;orthogonalLoop=1;jettySize=auto;html=1;exitX=1;exitY=0.3333333333333333;exitDx=0;exitDy=0;exitPerimeter=0;entryX=0;entryY=0.5;entryDx=0;entryDy=0;" edge="1" parent="1" source="01gwcUR04YjT3qTSlaYS-1" target="01gwcUR04YjT3qTSlaYS-12">
          <mxGeometry relative="1" as="geometry" />
        </mxCell>
        <mxCell id="01gwcUR04YjT3qTSlaYS-1" value="Actor" style="shape=umlActor;verticalLabelPosition=bottom;verticalAlign=top;html=1;outlineConnect=0;" vertex="1" parent="1">
          <mxGeometry x="90" y="230" width="70" height="140" as="geometry" />
        </mxCell>
        <mxCell id="01gwcUR04YjT3qTSlaYS-2" value="Play Game" style="ellipse;whiteSpace=wrap;html=1;" vertex="1" parent="1">
          <mxGeometry x="354" y="30" width="120" height="80" as="geometry" />
        </mxCell>
        <mxCell id="01gwcUR04YjT3qTSlaYS-4" value="Back to Main Menu" style="ellipse;whiteSpace=wrap;html=1;" vertex="1" parent="1">
          <mxGeometry x="354" y="140" width="120" height="80" as="geometry" />
        </mxCell>
        <mxCell id="01gwcUR04YjT3qTSlaYS-5" value="View my score" style="ellipse;whiteSpace=wrap;html=1;" vertex="1" parent="1">
          <mxGeometry x="354" y="260" width="120" height="80" as="geometry" />
        </mxCell>
        <mxCell id="01gwcUR04YjT3qTSlaYS-6" value="Choose Answer" style="ellipse;whiteSpace=wrap;html=1;" vertex="1" parent="1">
          <mxGeometry x="354" y="480" width="120" height="80" as="geometry" />
        </mxCell>
        <mxCell id="01gwcUR04YjT3qTSlaYS-12" value="View Questions" style="ellipse;whiteSpace=wrap;html=1;" vertex="1" parent="1">
          <mxGeometry x="354" y="370" width="120" height="80" as="geometry" />
        </mxCell>
      </root>
    </mxGraphModel>
  </diagram>
</mxfile>
